<svg width="824" height="152" viewBox="0 0 824 152" fill="none" xmlns="http://www.w3.org/2000/svg">
<g clip-path="url(#clip0_1003_119)">
<rect x="20" y="12" width="32" height="128" fill="url(#paint0_linear_1003_119)"/>
<rect x="52" y="12" width="32" height="128" fill="url(#paint1_linear_1003_119)"/>
<rect x="84" y="12" width="32" height="128" fill="url(#paint2_linear_1003_119)"/>
<rect x="116" y="12" width="32" height="128" fill="url(#paint3_linear_1003_119)"/>
<g filter="url(#filter0_b_1003_119)">
<path d="M22 107.75V44C22 27.4315 35.4315 14 52 14H116C132.569 14 146 27.4315 146 44V107.75C146 124.319 132.569 137.75 116 137.75H52C35.4315 137.75 22 124.319 22 107.75Z" stroke="url(#paint4_linear_1003_119)" stroke-opacity="0.12" stroke-width="4"/>
</g>
</g>
<path d="M230.753 68.4688H219.554C219.349 67.0199 218.932 65.733 218.301 64.608C217.67 63.4659 216.861 62.4943 215.872 61.6932C214.884 60.892 213.741 60.2784 212.446 59.8523C211.168 59.4261 209.778 59.2131 208.278 59.2131C205.568 59.2131 203.207 59.8864 201.196 61.233C199.185 62.5625 197.625 64.5057 196.517 67.0625C195.409 69.6023 194.855 72.6875 194.855 76.3182C194.855 80.0511 195.409 83.1875 196.517 85.7273C197.642 88.267 199.21 90.1847 201.222 91.4801C203.233 92.7756 205.56 93.4233 208.202 93.4233C209.685 93.4233 211.057 93.2273 212.318 92.8352C213.597 92.4432 214.73 91.8722 215.719 91.1222C216.707 90.3551 217.526 89.4261 218.173 88.3352C218.838 87.2443 219.298 86 219.554 84.6023L230.753 84.6534C230.463 87.0568 229.739 89.375 228.58 91.608C227.438 93.8239 225.895 95.8097 223.952 97.5653C222.026 99.304 219.724 100.685 217.048 101.707C214.389 102.713 211.381 103.216 208.023 103.216C203.352 103.216 199.176 102.159 195.494 100.045C191.83 97.9318 188.932 94.8722 186.801 90.8665C184.688 86.8608 183.631 82.0114 183.631 76.3182C183.631 70.608 184.705 65.75 186.852 61.7443C189 57.7386 191.915 54.6875 195.597 52.5909C199.278 50.4773 203.42 49.4205 208.023 49.4205C211.057 49.4205 213.869 49.8466 216.46 50.6989C219.068 51.5511 221.378 52.7955 223.389 54.4318C225.401 56.0511 227.037 58.0369 228.298 60.3892C229.577 62.7415 230.395 65.4347 230.753 68.4688ZM256.232 103.267C252.26 103.267 248.825 102.423 245.928 100.736C243.047 99.0312 240.822 96.6619 239.254 93.6278C237.686 90.5767 236.902 87.0398 236.902 83.017C236.902 78.9602 237.686 75.4148 239.254 72.3807C240.822 69.3295 243.047 66.9602 245.928 65.2727C248.825 63.5682 252.26 62.7159 256.232 62.7159C260.203 62.7159 263.629 63.5682 266.51 65.2727C269.408 66.9602 271.641 69.3295 273.209 72.3807C274.777 75.4148 275.561 78.9602 275.561 83.017C275.561 87.0398 274.777 90.5767 273.209 93.6278C271.641 96.6619 269.408 99.0312 266.51 100.736C263.629 102.423 260.203 103.267 256.232 103.267ZM256.283 94.8295C258.089 94.8295 259.598 94.3182 260.808 93.2955C262.018 92.2557 262.93 90.8409 263.544 89.0511C264.175 87.2614 264.49 85.2244 264.49 82.9403C264.49 80.6562 264.175 78.6193 263.544 76.8295C262.93 75.0398 262.018 73.625 260.808 72.5852C259.598 71.5455 258.089 71.0256 256.283 71.0256C254.459 71.0256 252.925 71.5455 251.68 72.5852C250.453 73.625 249.524 75.0398 248.893 76.8295C248.28 78.6193 247.973 80.6562 247.973 82.9403C247.973 85.2244 248.28 87.2614 248.893 89.0511C249.524 90.8409 250.453 92.2557 251.68 93.2955C252.925 94.3182 254.459 94.8295 256.283 94.8295ZM293.536 50.1364V102.5H282.643V50.1364H293.536ZM320.005 103.267C316.033 103.267 312.599 102.423 309.701 100.736C306.82 99.0312 304.596 96.6619 303.028 93.6278C301.46 90.5767 300.675 87.0398 300.675 83.017C300.675 78.9602 301.46 75.4148 303.028 72.3807C304.596 69.3295 306.82 66.9602 309.701 65.2727C312.599 63.5682 316.033 62.7159 320.005 62.7159C323.977 62.7159 327.403 63.5682 330.283 65.2727C333.181 66.9602 335.414 69.3295 336.982 72.3807C338.55 75.4148 339.335 78.9602 339.335 83.017C339.335 87.0398 338.55 90.5767 336.982 93.6278C335.414 96.6619 333.181 99.0312 330.283 100.736C327.403 102.423 323.977 103.267 320.005 103.267ZM320.056 94.8295C321.863 94.8295 323.371 94.3182 324.582 93.2955C325.792 92.2557 326.704 90.8409 327.317 89.0511C327.948 87.2614 328.263 85.2244 328.263 82.9403C328.263 80.6562 327.948 78.6193 327.317 76.8295C326.704 75.0398 325.792 73.625 324.582 72.5852C323.371 71.5455 321.863 71.0256 320.056 71.0256C318.232 71.0256 316.698 71.5455 315.454 72.5852C314.227 73.625 313.298 75.0398 312.667 76.8295C312.053 78.6193 311.746 80.6562 311.746 82.9403C311.746 85.2244 312.053 87.2614 312.667 89.0511C313.298 90.8409 314.227 92.2557 315.454 93.2955C316.698 94.3182 318.232 94.8295 320.056 94.8295ZM346.417 102.5V63.2273H356.977V70.0795H357.386C358.102 67.642 359.303 65.8011 360.991 64.5568C362.678 63.2955 364.621 62.6648 366.82 62.6648C367.366 62.6648 367.954 62.6989 368.585 62.767C369.215 62.8352 369.769 62.929 370.246 63.0483V72.7131C369.735 72.5597 369.028 72.4233 368.124 72.304C367.221 72.1847 366.394 72.125 365.644 72.125C364.042 72.125 362.61 72.4744 361.349 73.1733C360.104 73.8551 359.116 74.8097 358.383 76.0369C357.667 77.2642 357.309 78.679 357.309 80.2812V102.5H346.417ZM421.153 65.196C420.948 63.1335 420.07 61.5312 418.519 60.3892C416.968 59.2472 414.863 58.6761 412.204 58.6761C410.397 58.6761 408.871 58.9318 407.627 59.4432C406.383 59.9375 405.428 60.6278 404.763 61.5142C404.116 62.4006 403.792 63.4062 403.792 64.5312C403.758 65.4688 403.954 66.2869 404.38 66.9858C404.823 67.6847 405.428 68.2898 406.195 68.8011C406.962 69.2955 407.849 69.7301 408.854 70.1051C409.86 70.4631 410.934 70.7699 412.076 71.0256L416.781 72.1506C419.065 72.6619 421.161 73.3437 423.07 74.196C424.979 75.0483 426.633 76.0966 428.031 77.3409C429.428 78.5852 430.511 80.0511 431.278 81.7386C432.062 83.4261 432.462 85.3608 432.479 87.5426C432.462 90.7472 431.644 93.5256 430.025 95.8778C428.423 98.2131 426.104 100.028 423.07 101.324C420.053 102.602 416.414 103.241 412.153 103.241C407.925 103.241 404.244 102.594 401.107 101.298C397.988 100.003 395.55 98.0852 393.795 95.5455C392.056 92.9886 391.144 89.8267 391.059 86.0597H401.772C401.891 87.8153 402.394 89.2812 403.281 90.4574C404.184 91.6165 405.386 92.4943 406.886 93.0909C408.403 93.6705 410.116 93.9602 412.025 93.9602C413.9 93.9602 415.528 93.6875 416.908 93.142C418.306 92.5966 419.388 91.8381 420.156 90.8665C420.923 89.8949 421.306 88.7784 421.306 87.517C421.306 86.3409 420.957 85.3523 420.258 84.5511C419.576 83.75 418.57 83.0682 417.241 82.5057C415.928 81.9432 414.317 81.4318 412.408 80.9716L406.707 79.5398C402.292 78.4659 398.806 76.7869 396.249 74.5028C393.692 72.2187 392.423 69.142 392.44 65.2727C392.423 62.1023 393.266 59.3324 394.971 56.9631C396.692 54.5938 399.053 52.7443 402.053 51.4148C405.053 50.0852 408.462 49.4205 412.281 49.4205C416.167 49.4205 419.559 50.0852 422.457 51.4148C425.371 52.7443 427.638 54.5938 429.258 56.9631C430.877 59.3324 431.712 62.0767 431.763 65.196H421.153ZM450.614 79.7955V102.5H439.722V50.1364H450.307V70.1562H450.767C451.653 67.8381 453.085 66.0227 455.062 64.7102C457.04 63.3807 459.52 62.7159 462.503 62.7159C465.23 62.7159 467.608 63.3125 469.636 64.5057C471.682 65.6818 473.267 67.3778 474.392 69.5938C475.534 71.7926 476.097 74.4261 476.08 77.4943V102.5H465.188V79.4375C465.205 77.017 464.591 75.1335 463.347 73.7869C462.119 72.4403 460.398 71.767 458.182 71.767C456.699 71.767 455.386 72.0824 454.244 72.7131C453.119 73.3437 452.233 74.2642 451.585 75.4744C450.955 76.6676 450.631 78.108 450.614 79.7955ZM495.85 103.241C493.344 103.241 491.112 102.807 489.151 101.938C487.191 101.051 485.64 99.7472 484.498 98.0256C483.373 96.2869 482.81 94.1222 482.81 91.5312C482.81 89.3494 483.211 87.517 484.012 86.0341C484.813 84.5511 485.904 83.358 487.285 82.4545C488.665 81.5511 490.234 80.8693 491.989 80.4091C493.762 79.9489 495.62 79.625 497.563 79.4375C499.847 79.1989 501.688 78.9773 503.086 78.7727C504.484 78.5511 505.498 78.2273 506.129 77.8011C506.759 77.375 507.075 76.7443 507.075 75.9091V75.7557C507.075 74.1364 506.563 72.8835 505.54 71.9972C504.535 71.1108 503.103 70.6676 501.245 70.6676C499.285 70.6676 497.725 71.1023 496.566 71.9716C495.407 72.8239 494.64 73.8977 494.265 75.1932L484.191 74.375C484.702 71.9886 485.708 69.9261 487.208 68.1875C488.708 66.4318 490.643 65.0852 493.012 64.1477C495.398 63.1932 498.16 62.7159 501.296 62.7159C503.478 62.7159 505.566 62.9716 507.56 63.483C509.572 63.9943 511.353 64.7869 512.904 65.8608C514.472 66.9347 515.708 68.3153 516.612 70.0028C517.515 71.6733 517.967 73.6761 517.967 76.0114V102.5H507.637V97.054H507.33C506.7 98.2812 505.856 99.3636 504.799 100.301C503.742 101.222 502.472 101.946 500.989 102.474C499.506 102.986 497.793 103.241 495.85 103.241ZM498.969 95.7244C500.572 95.7244 501.987 95.4091 503.214 94.7784C504.441 94.1307 505.404 93.2614 506.103 92.1705C506.802 91.0795 507.151 89.8437 507.151 88.4631V84.2955C506.81 84.517 506.342 84.7216 505.745 84.9091C505.165 85.0795 504.509 85.2415 503.776 85.3949C503.043 85.5312 502.31 85.6591 501.577 85.7784C500.844 85.8807 500.18 85.9744 499.583 86.0597C498.305 86.2472 497.188 86.5455 496.234 86.9545C495.279 87.3636 494.538 87.9176 494.009 88.6165C493.481 89.2983 493.217 90.1506 493.217 91.1733C493.217 92.6562 493.754 93.7898 494.827 94.5739C495.918 95.3409 497.299 95.7244 498.969 95.7244ZM540.888 103.139C537.906 103.139 535.204 102.372 532.783 100.838C530.38 99.2869 528.471 97.0114 527.056 94.0114C525.658 90.9943 524.96 87.2955 524.96 82.9148C524.96 78.4148 525.684 74.6733 527.133 71.6903C528.582 68.6903 530.508 66.4489 532.911 64.9659C535.332 63.4659 537.982 62.7159 540.863 62.7159C543.062 62.7159 544.894 63.0909 546.36 63.8409C547.843 64.5739 549.036 65.4943 549.94 66.6023C550.86 67.6932 551.559 68.767 552.036 69.8239H552.369V50.1364H563.235V102.5H552.496V96.2102H552.036C551.525 97.3011 550.8 98.3835 549.863 99.4574C548.942 100.514 547.741 101.392 546.258 102.091C544.792 102.79 543.002 103.139 540.888 103.139ZM544.34 94.4716C546.096 94.4716 547.579 93.9943 548.789 93.0398C550.016 92.0682 550.954 90.7131 551.602 88.9744C552.266 87.2358 552.599 85.1989 552.599 82.8636C552.599 80.5284 552.275 78.5 551.627 76.7784C550.979 75.0568 550.042 73.7273 548.815 72.7898C547.587 71.8523 546.096 71.3835 544.34 71.3835C542.55 71.3835 541.042 71.8693 539.815 72.8409C538.587 73.8125 537.658 75.1591 537.028 76.8807C536.397 78.6023 536.082 80.5966 536.082 82.8636C536.082 85.1477 536.397 87.1676 537.028 88.9233C537.675 90.6619 538.604 92.0256 539.815 93.0142C541.042 93.9858 542.55 94.4716 544.34 94.4716ZM590.088 103.267C586.048 103.267 582.571 102.449 579.656 100.812C576.759 99.1591 574.526 96.8239 572.957 93.8068C571.389 90.7727 570.605 87.1847 570.605 83.0426C570.605 79.0028 571.389 75.4574 572.957 72.4062C574.526 69.3551 576.733 66.9773 579.58 65.2727C582.443 63.5682 585.801 62.7159 589.653 62.7159C592.244 62.7159 594.656 63.1335 596.889 63.9688C599.139 64.7869 601.099 66.0227 602.77 67.6761C604.457 69.3295 605.77 71.4091 606.707 73.9148C607.645 76.4034 608.114 79.3182 608.114 82.6591V85.6506H574.952V78.9006H597.861C597.861 77.3324 597.52 75.9432 596.838 74.733C596.156 73.5227 595.21 72.5767 594 71.8949C592.807 71.196 591.418 70.8466 589.832 70.8466C588.179 70.8466 586.713 71.2301 585.435 71.9972C584.173 72.7472 583.185 73.7614 582.469 75.0398C581.753 76.3011 581.386 77.7074 581.369 79.2585V85.6761C581.369 87.6193 581.727 89.2983 582.443 90.7131C583.176 92.1278 584.207 93.2188 585.537 93.9858C586.866 94.7528 588.443 95.1364 590.267 95.1364C591.477 95.1364 592.585 94.9659 593.591 94.625C594.597 94.2841 595.457 93.7727 596.173 93.0909C596.889 92.4091 597.435 91.5739 597.81 90.5852L607.884 91.25C607.372 93.6705 606.324 95.7841 604.739 97.5909C603.17 99.3807 601.142 100.778 598.653 101.784C596.182 102.773 593.327 103.267 590.088 103.267ZM615.222 102.5V63.2273H625.781V70.0795H626.19C626.906 67.642 628.108 65.8011 629.795 64.5568C631.483 63.2955 633.426 62.6648 635.625 62.6648C636.17 62.6648 636.759 62.6989 637.389 62.767C638.02 62.8352 638.574 62.929 639.051 63.0483V72.7131C638.54 72.5597 637.832 72.4233 636.929 72.304C636.026 72.1847 635.199 72.125 634.449 72.125C632.847 72.125 631.415 72.4744 630.153 73.1733C628.909 73.8551 627.92 74.8097 627.188 76.0369C626.472 77.2642 626.114 78.679 626.114 80.2812V102.5H615.222Z" fill="black"/>
<rect x="673.335" y="50.3355" width="129.458" height="51.329" rx="13.0839" stroke="black" stroke-width="0.670968"/>
<path d="M694.807 67.6129C694.807 65.2968 696.684 63.4193 699 63.4193H703.194V71.8064H699C696.684 71.8064 694.807 69.9289 694.807 67.6129Z" fill="#E64A19"/>
<path d="M703.194 63.4193H707.387C709.703 63.4193 711.581 65.2968 711.581 67.6129C711.581 69.9289 709.703 71.8064 707.387 71.8064H703.194V63.4193Z" fill="#FF7043"/>
<path d="M694.807 76C694.807 73.6839 696.684 71.8064 699 71.8064H703.194V80.1935H699C696.684 80.1935 694.807 78.316 694.807 76Z" fill="#7C4DFF"/>
<path d="M703.194 76C703.194 73.6839 705.071 71.8064 707.387 71.8064C709.703 71.8064 711.581 73.6839 711.581 76C711.581 78.316 709.703 80.1935 707.387 80.1935C705.071 80.1935 703.194 78.316 703.194 76Z" fill="#29B6F6"/>
<path d="M694.807 84.3871C694.807 82.071 696.684 80.1935 699 80.1935H703.194V84.3871C703.194 86.7031 701.316 88.5806 699 88.5806C696.684 88.5806 694.807 86.7031 694.807 84.3871Z" fill="#66BB6A"/>
<path d="M724.772 82.4193V68.0069H729.845C730.529 68.0069 731.166 68.121 731.757 68.3491C732.361 68.5638 732.884 68.8725 733.327 69.2751C733.77 69.6776 734.119 70.1607 734.374 70.7243C734.629 71.2745 734.756 71.8851 734.756 72.5561C734.756 73.2405 734.629 73.8645 734.374 74.4281C734.119 74.9783 733.77 75.4547 733.327 75.8572C732.884 76.2598 732.361 76.5752 731.757 76.8033C731.166 77.018 730.529 77.1254 729.845 77.1254H727.489V82.4193H724.772ZM729.885 74.5489C730.596 74.5489 731.133 74.3476 731.495 73.945C731.857 73.5424 732.039 73.0794 732.039 72.5561C732.039 72.3011 731.992 72.0529 731.898 71.8113C731.817 71.5698 731.683 71.3618 731.495 71.1873C731.321 70.9994 731.099 70.8518 730.831 70.7445C730.562 70.6371 730.247 70.5834 729.885 70.5834H727.489V74.5489H729.885ZM736.461 82.4193V68.0069H739.097V82.4193H736.461ZM748.179 81.1311H748.018C747.709 81.6276 747.293 82.0234 746.77 82.3187C746.247 82.6005 745.649 82.7414 744.978 82.7414C743.73 82.7414 742.798 82.3589 742.181 81.594C741.577 80.8291 741.275 79.8092 741.275 78.5344V72.5561H743.912V78.2123C743.912 78.9236 744.066 79.4536 744.375 79.8025C744.697 80.138 745.16 80.3058 745.763 80.3058C746.126 80.3058 746.441 80.232 746.71 80.0843C746.991 79.9233 747.226 79.7153 747.414 79.4603C747.615 79.192 747.763 78.8833 747.857 78.5344C747.964 78.1721 748.018 77.7896 748.018 77.3871V72.5561H750.655V82.4193H748.179V81.1311ZM757.365 87.0892C756.667 87.0892 756.043 86.9953 755.493 86.8074C754.956 86.633 754.486 86.3982 754.084 86.1029C753.681 85.8211 753.345 85.5058 753.077 85.1569C752.809 84.808 752.614 84.4591 752.493 84.1102L755.009 83.1037C755.197 83.6271 755.506 84.0296 755.935 84.3114C756.365 84.6067 756.841 84.7543 757.365 84.7543C758.197 84.7543 758.854 84.4926 759.337 83.9692C759.82 83.4593 760.062 82.7414 760.062 81.8154V81.1311H759.901C759.592 81.5605 759.183 81.9027 758.673 82.1576C758.176 82.3992 757.586 82.52 756.902 82.52C756.311 82.52 755.734 82.3992 755.17 82.1576C754.62 81.9161 754.13 81.5739 753.701 81.1311C753.272 80.6748 752.923 80.1313 752.654 79.5006C752.386 78.8699 752.252 78.1654 752.252 77.3871C752.252 76.6087 752.386 75.9042 752.654 75.2735C752.923 74.6294 753.272 74.0859 753.701 73.6431C754.13 73.1868 754.62 72.8379 755.17 72.5963C755.734 72.3548 756.311 72.234 756.902 72.234C757.586 72.234 758.176 72.3615 758.673 72.6165C759.183 72.858 759.592 73.1935 759.901 73.6229H760.062V72.5561H762.578V81.7148C762.578 82.5468 762.45 83.2916 762.196 83.9491C761.941 84.6201 761.585 85.1837 761.129 85.64C760.672 86.1096 760.122 86.4652 759.478 86.7068C758.847 86.9618 758.143 87.0892 757.365 87.0892ZM757.465 80.1447C757.787 80.1447 758.103 80.0843 758.411 79.9636C758.733 79.8428 759.015 79.6683 759.257 79.4402C759.498 79.1987 759.693 78.9102 759.84 78.5747C759.988 78.2258 760.062 77.8299 760.062 77.3871C760.062 76.9442 759.988 76.5483 759.84 76.1994C759.693 75.8505 759.498 75.562 759.257 75.3339C759.015 75.0923 758.733 74.9112 758.411 74.7904C758.103 74.6696 757.787 74.6092 757.465 74.6092C757.143 74.6092 756.828 74.6696 756.519 74.7904C756.21 74.9112 755.935 75.0923 755.694 75.3339C755.452 75.5754 755.258 75.8707 755.11 76.2196C754.962 76.5551 754.889 76.9442 754.889 77.3871C754.889 77.8299 754.962 78.2258 755.11 78.5747C755.258 78.9102 755.452 79.1987 755.694 79.4402C755.935 79.6683 756.21 79.8428 756.519 79.9636C756.828 80.0843 757.143 80.1447 757.465 80.1447ZM766.295 71.1269C766.067 71.1269 765.846 71.0867 765.631 71.0061C765.43 70.9122 765.249 70.7914 765.088 70.6438C764.94 70.4828 764.819 70.3016 764.725 70.1003C764.645 69.8991 764.605 69.6776 764.605 69.4361C764.605 69.1945 764.645 68.9731 764.725 68.7718C764.819 68.5705 764.94 68.3961 765.088 68.2485C765.249 68.0874 765.43 67.9667 765.631 67.8861C765.846 67.7922 766.067 67.7452 766.295 67.7452C766.765 67.7452 767.168 67.913 767.503 68.2485C767.839 68.5705 768.006 68.9664 768.006 69.4361C768.006 69.9058 767.839 70.3083 767.503 70.6438C767.168 70.9659 766.765 71.1269 766.295 71.1269ZM764.987 82.4193V72.5561H767.624V82.4193H764.987ZM772.511 73.8443H772.672C772.981 73.3478 773.397 72.9587 773.92 72.6769C774.443 72.3816 775.041 72.234 775.712 72.234C776.329 72.234 776.872 72.3347 777.342 72.536C777.812 72.7372 778.194 73.0258 778.489 73.4015C778.798 73.7638 779.026 74.2067 779.174 74.73C779.335 75.24 779.415 75.8103 779.415 76.441V82.4193H776.778V76.7631C776.778 76.0518 776.617 75.5285 776.295 75.193C775.987 74.8441 775.53 74.6696 774.927 74.6696C774.564 74.6696 774.242 74.7501 773.96 74.9112C773.692 75.0588 773.457 75.2668 773.256 75.5352C773.068 75.7902 772.92 76.0988 772.813 76.4611C772.719 76.81 772.672 77.1858 772.672 77.5883V82.4193H770.035V72.5561H772.511V73.8443Z" fill="black"/>
<defs>
<filter id="filter0_b_1003_119" x="-28" y="-36" width="224" height="223.75" filterUnits="userSpaceOnUse" color-interpolation-filters="sRGB">
<feFlood flood-opacity="0" result="BackgroundImageFix"/>
<feGaussianBlur in="BackgroundImageFix" stdDeviation="24"/>
<feComposite in2="SourceAlpha" operator="in" result="effect1_backgroundBlur_1003_119"/>
<feBlend mode="normal" in="SourceGraphic" in2="effect1_backgroundBlur_1003_119" result="shape"/>
</filter>
<linearGradient id="paint0_linear_1003_119" x1="36" y1="12" x2="36" y2="140" gradientUnits="userSpaceOnUse">
<stop stop-color="#404040"/>
<stop offset="0.5" stop-color="#808080"/>
<stop offset="0.75" stop-color="#BFBFBF"/>
<stop offset="1" stop-color="#A6A6A6"/>
</linearGradient>
<linearGradient id="paint1_linear_1003_119" x1="68" y1="12" x2="68" y2="140" gradientUnits="userSpaceOnUse">
<stop stop-color="#064979"/>
<stop offset="0.5" stop-color="#0C92F3"/>
<stop offset="0.75" stop-color="#86C8F9"/>
<stop offset="1" stop-color="#CEE9FD"/>
</linearGradient>
<linearGradient id="paint2_linear_1003_119" x1="100" y1="12" x2="100" y2="140" gradientUnits="userSpaceOnUse">
<stop stop-color="#800000"/>
<stop offset="0.5" stop-color="#FF0000"/>
<stop offset="0.75" stop-color="#FF8080"/>
<stop offset="1" stop-color="#FFCCCC"/>
</linearGradient>
<linearGradient id="paint3_linear_1003_119" x1="132" y1="12" x2="132" y2="140" gradientUnits="userSpaceOnUse">
<stop stop-color="#806600"/>
<stop offset="0.5" stop-color="#FFCC00"/>
<stop offset="0.75" stop-color="#FFE680"/>
<stop offset="1" stop-color="#FFF5CC"/>
</linearGradient>
<linearGradient id="paint4_linear_1003_119" x1="84" y1="12" x2="84" y2="139.75" gradientUnits="userSpaceOnUse">
<stop stop-color="white"/>
<stop offset="1"/>
</linearGradient>
<clipPath id="clip0_1003_119">
<rect x="20" y="12" width="128" height="128" rx="32" fill="white"/>
</clipPath>
</defs>
</svg>
