<svg width="1035" height="152" viewBox="0 0 1035 152" fill="none" xmlns="http://www.w3.org/2000/svg">
<rect width="1034.5" height="152" fill="white"/>
<g clip-path="url(#clip0_1003_119)">
<rect x="20" y="12" width="32" height="128" fill="url(#paint0_linear_1003_119)"/>
<rect x="52" y="12" width="32" height="128" fill="url(#paint1_linear_1003_119)"/>
<rect x="84" y="12" width="32" height="128" fill="url(#paint2_linear_1003_119)"/>
<rect x="116" y="12" width="32" height="128" fill="url(#paint3_linear_1003_119)"/>
<g filter="url(#filter0_b_1003_119)">
<path d="M22 107.75V44C22 27.4315 35.4315 14 52 14H116C132.569 14 146 27.4315 146 44V107.75C146 124.319 132.569 137.75 116 137.75H52C35.4315 137.75 22 124.319 22 107.75Z" stroke="url(#paint4_linear_1003_119)" stroke-opacity="0.12" stroke-width="4"/>
</g>
</g>
<path d="M230.753 68.4688H219.554C219.349 67.0199 218.932 65.733 218.301 64.608C217.67 63.4659 216.861 62.4943 215.872 61.6932C214.884 60.892 213.741 60.2784 212.446 59.8523C211.168 59.4261 209.778 59.2131 208.278 59.2131C205.568 59.2131 203.207 59.8864 201.196 61.233C199.185 62.5625 197.625 64.5057 196.517 67.0625C195.409 69.6023 194.855 72.6875 194.855 76.3182C194.855 80.0511 195.409 83.1875 196.517 85.7273C197.642 88.267 199.21 90.1847 201.222 91.4801C203.233 92.7756 205.56 93.4233 208.202 93.4233C209.685 93.4233 211.057 93.2273 212.318 92.8352C213.597 92.4432 214.73 91.8722 215.719 91.1222C216.707 90.3551 217.526 89.4261 218.173 88.3352C218.838 87.2443 219.298 86 219.554 84.6023L230.753 84.6534C230.463 87.0568 229.739 89.375 228.58 91.608C227.438 93.8239 225.895 95.8097 223.952 97.5653C222.026 99.304 219.724 100.685 217.048 101.707C214.389 102.713 211.381 103.216 208.023 103.216C203.352 103.216 199.176 102.159 195.494 100.045C191.83 97.9318 188.932 94.8722 186.801 90.8665C184.688 86.8608 183.631 82.0114 183.631 76.3182C183.631 70.608 184.705 65.75 186.852 61.7443C189 57.7386 191.915 54.6875 195.597 52.5909C199.278 50.4773 203.42 49.4205 208.023 49.4205C211.057 49.4205 213.869 49.8466 216.46 50.6989C219.068 51.5511 221.378 52.7955 223.389 54.4318C225.401 56.0511 227.037 58.0369 228.298 60.3892C229.577 62.7415 230.395 65.4347 230.753 68.4688ZM256.232 103.267C252.26 103.267 248.825 102.423 245.928 100.736C243.047 99.0312 240.822 96.6619 239.254 93.6278C237.686 90.5767 236.902 87.0398 236.902 83.017C236.902 78.9602 237.686 75.4148 239.254 72.3807C240.822 69.3295 243.047 66.9602 245.928 65.2727C248.825 63.5682 252.26 62.7159 256.232 62.7159C260.203 62.7159 263.629 63.5682 266.51 65.2727C269.408 66.9602 271.641 69.3295 273.209 72.3807C274.777 75.4148 275.561 78.9602 275.561 83.017C275.561 87.0398 274.777 90.5767 273.209 93.6278C271.641 96.6619 269.408 99.0312 266.51 100.736C263.629 102.423 260.203 103.267 256.232 103.267ZM256.283 94.8295C258.089 94.8295 259.598 94.3182 260.808 93.2955C262.018 92.2557 262.93 90.8409 263.544 89.0511C264.175 87.2614 264.49 85.2244 264.49 82.9403C264.49 80.6562 264.175 78.6193 263.544 76.8295C262.93 75.0398 262.018 73.625 260.808 72.5852C259.598 71.5455 258.089 71.0256 256.283 71.0256C254.459 71.0256 252.925 71.5455 251.68 72.5852C250.453 73.625 249.524 75.0398 248.893 76.8295C248.28 78.6193 247.973 80.6562 247.973 82.9403C247.973 85.2244 248.28 87.2614 248.893 89.0511C249.524 90.8409 250.453 92.2557 251.68 93.2955C252.925 94.3182 254.459 94.8295 256.283 94.8295ZM293.536 50.1364V102.5H282.643V50.1364H293.536ZM320.005 103.267C316.033 103.267 312.599 102.423 309.701 100.736C306.82 99.0312 304.596 96.6619 303.028 93.6278C301.46 90.5767 300.675 87.0398 300.675 83.017C300.675 78.9602 301.46 75.4148 303.028 72.3807C304.596 69.3295 306.82 66.9602 309.701 65.2727C312.599 63.5682 316.033 62.7159 320.005 62.7159C323.977 62.7159 327.403 63.5682 330.283 65.2727C333.181 66.9602 335.414 69.3295 336.982 72.3807C338.55 75.4148 339.335 78.9602 339.335 83.017C339.335 87.0398 338.55 90.5767 336.982 93.6278C335.414 96.6619 333.181 99.0312 330.283 100.736C327.403 102.423 323.977 103.267 320.005 103.267ZM320.056 94.8295C321.863 94.8295 323.371 94.3182 324.582 93.2955C325.792 92.2557 326.704 90.8409 327.317 89.0511C327.948 87.2614 328.263 85.2244 328.263 82.9403C328.263 80.6562 327.948 78.6193 327.317 76.8295C326.704 75.0398 325.792 73.625 324.582 72.5852C323.371 71.5455 321.863 71.0256 320.056 71.0256C318.232 71.0256 316.698 71.5455 315.454 72.5852C314.227 73.625 313.298 75.0398 312.667 76.8295C312.053 78.6193 311.746 80.6562 311.746 82.9403C311.746 85.2244 312.053 87.2614 312.667 89.0511C313.298 90.8409 314.227 92.2557 315.454 93.2955C316.698 94.3182 318.232 94.8295 320.056 94.8295ZM346.417 102.5V63.2273H356.977V70.0795H357.386C358.102 67.642 359.303 65.8011 360.991 64.5568C362.678 63.2955 364.621 62.6648 366.82 62.6648C367.366 62.6648 367.954 62.6989 368.585 62.767C369.215 62.8352 369.769 62.929 370.246 63.0483V72.7131C369.735 72.5597 369.028 72.4233 368.124 72.304C367.221 72.1847 366.394 72.125 365.644 72.125C364.042 72.125 362.61 72.4744 361.349 73.1733C360.104 73.8551 359.116 74.8097 358.383 76.0369C357.667 77.2642 357.309 78.679 357.309 80.2812V102.5H346.417ZM421.153 65.196C420.948 63.1335 420.07 61.5312 418.519 60.3892C416.968 59.2472 414.863 58.6761 412.204 58.6761C410.397 58.6761 408.871 58.9318 407.627 59.4432C406.383 59.9375 405.428 60.6278 404.763 61.5142C404.116 62.4006 403.792 63.4062 403.792 64.5312C403.758 65.4688 403.954 66.2869 404.38 66.9858C404.823 67.6847 405.428 68.2898 406.195 68.8011C406.962 69.2955 407.849 69.7301 408.854 70.1051C409.86 70.4631 410.934 70.7699 412.076 71.0256L416.781 72.1506C419.065 72.6619 421.161 73.3437 423.07 74.196C424.979 75.0483 426.633 76.0966 428.031 77.3409C429.428 78.5852 430.511 80.0511 431.278 81.7386C432.062 83.4261 432.462 85.3608 432.479 87.5426C432.462 90.7472 431.644 93.5256 430.025 95.8778C428.423 98.2131 426.104 100.028 423.07 101.324C420.053 102.602 416.414 103.241 412.153 103.241C407.925 103.241 404.244 102.594 401.107 101.298C397.988 100.003 395.55 98.0852 393.795 95.5455C392.056 92.9886 391.144 89.8267 391.059 86.0597H401.772C401.891 87.8153 402.394 89.2812 403.281 90.4574C404.184 91.6165 405.386 92.4943 406.886 93.0909C408.403 93.6705 410.116 93.9602 412.025 93.9602C413.9 93.9602 415.528 93.6875 416.908 93.142C418.306 92.5966 419.388 91.8381 420.156 90.8665C420.923 89.8949 421.306 88.7784 421.306 87.517C421.306 86.3409 420.957 85.3523 420.258 84.5511C419.576 83.75 418.57 83.0682 417.241 82.5057C415.928 81.9432 414.317 81.4318 412.408 80.9716L406.707 79.5398C402.292 78.4659 398.806 76.7869 396.249 74.5028C393.692 72.2187 392.423 69.142 392.44 65.2727C392.423 62.1023 393.266 59.3324 394.971 56.9631C396.692 54.5938 399.053 52.7443 402.053 51.4148C405.053 50.0852 408.462 49.4205 412.281 49.4205C416.167 49.4205 419.559 50.0852 422.457 51.4148C425.371 52.7443 427.638 54.5938 429.258 56.9631C430.877 59.3324 431.712 62.0767 431.763 65.196H421.153ZM450.614 79.7955V102.5H439.722V50.1364H450.307V70.1562H450.767C451.653 67.8381 453.085 66.0227 455.062 64.7102C457.04 63.3807 459.52 62.7159 462.503 62.7159C465.23 62.7159 467.608 63.3125 469.636 64.5057C471.682 65.6818 473.267 67.3778 474.392 69.5938C475.534 71.7926 476.097 74.4261 476.08 77.4943V102.5H465.188V79.4375C465.205 77.017 464.591 75.1335 463.347 73.7869C462.119 72.4403 460.398 71.767 458.182 71.767C456.699 71.767 455.386 72.0824 454.244 72.7131C453.119 73.3437 452.233 74.2642 451.585 75.4744C450.955 76.6676 450.631 78.108 450.614 79.7955ZM495.85 103.241C493.344 103.241 491.112 102.807 489.151 101.938C487.191 101.051 485.64 99.7472 484.498 98.0256C483.373 96.2869 482.81 94.1222 482.81 91.5312C482.81 89.3494 483.211 87.517 484.012 86.0341C484.813 84.5511 485.904 83.358 487.285 82.4545C488.665 81.5511 490.234 80.8693 491.989 80.4091C493.762 79.9489 495.62 79.625 497.563 79.4375C499.847 79.1989 501.688 78.9773 503.086 78.7727C504.484 78.5511 505.498 78.2273 506.129 77.8011C506.759 77.375 507.075 76.7443 507.075 75.9091V75.7557C507.075 74.1364 506.563 72.8835 505.54 71.9972C504.535 71.1108 503.103 70.6676 501.245 70.6676C499.285 70.6676 497.725 71.1023 496.566 71.9716C495.407 72.8239 494.64 73.8977 494.265 75.1932L484.191 74.375C484.702 71.9886 485.708 69.9261 487.208 68.1875C488.708 66.4318 490.643 65.0852 493.012 64.1477C495.398 63.1932 498.16 62.7159 501.296 62.7159C503.478 62.7159 505.566 62.9716 507.56 63.483C509.572 63.9943 511.353 64.7869 512.904 65.8608C514.472 66.9347 515.708 68.3153 516.612 70.0028C517.515 71.6733 517.967 73.6761 517.967 76.0114V102.5H507.637V97.054H507.33C506.7 98.2812 505.856 99.3636 504.799 100.301C503.742 101.222 502.472 101.946 500.989 102.474C499.506 102.986 497.793 103.241 495.85 103.241ZM498.969 95.7244C500.572 95.7244 501.987 95.4091 503.214 94.7784C504.441 94.1307 505.404 93.2614 506.103 92.1705C506.802 91.0795 507.151 89.8437 507.151 88.4631V84.2955C506.81 84.517 506.342 84.7216 505.745 84.9091C505.165 85.0795 504.509 85.2415 503.776 85.3949C503.043 85.5312 502.31 85.6591 501.577 85.7784C500.844 85.8807 500.18 85.9744 499.583 86.0597C498.305 86.2472 497.188 86.5455 496.234 86.9545C495.279 87.3636 494.538 87.9176 494.009 88.6165C493.481 89.2983 493.217 90.1506 493.217 91.1733C493.217 92.6562 493.754 93.7898 494.827 94.5739C495.918 95.3409 497.299 95.7244 498.969 95.7244ZM540.888 103.139C537.906 103.139 535.204 102.372 532.783 100.838C530.38 99.2869 528.471 97.0114 527.056 94.0114C525.658 90.9943 524.96 87.2955 524.96 82.9148C524.96 78.4148 525.684 74.6733 527.133 71.6903C528.582 68.6903 530.508 66.4489 532.911 64.9659C535.332 63.4659 537.982 62.7159 540.863 62.7159C543.062 62.7159 544.894 63.0909 546.36 63.8409C547.843 64.5739 549.036 65.4943 549.94 66.6023C550.86 67.6932 551.559 68.767 552.036 69.8239H552.369V50.1364H563.235V102.5H552.496V96.2102H552.036C551.525 97.3011 550.8 98.3835 549.863 99.4574C548.942 100.514 547.741 101.392 546.258 102.091C544.792 102.79 543.002 103.139 540.888 103.139ZM544.34 94.4716C546.096 94.4716 547.579 93.9943 548.789 93.0398C550.016 92.0682 550.954 90.7131 551.602 88.9744C552.266 87.2358 552.599 85.1989 552.599 82.8636C552.599 80.5284 552.275 78.5 551.627 76.7784C550.979 75.0568 550.042 73.7273 548.815 72.7898C547.587 71.8523 546.096 71.3835 544.34 71.3835C542.55 71.3835 541.042 71.8693 539.815 72.8409C538.587 73.8125 537.658 75.1591 537.028 76.8807C536.397 78.6023 536.082 80.5966 536.082 82.8636C536.082 85.1477 536.397 87.1676 537.028 88.9233C537.675 90.6619 538.604 92.0256 539.815 93.0142C541.042 93.9858 542.55 94.4716 544.34 94.4716ZM590.088 103.267C586.048 103.267 582.571 102.449 579.656 100.812C576.759 99.1591 574.526 96.8239 572.957 93.8068C571.389 90.7727 570.605 87.1847 570.605 83.0426C570.605 79.0028 571.389 75.4574 572.957 72.4062C574.526 69.3551 576.733 66.9773 579.58 65.2727C582.443 63.5682 585.801 62.7159 589.653 62.7159C592.244 62.7159 594.656 63.1335 596.889 63.9688C599.139 64.7869 601.099 66.0227 602.77 67.6761C604.457 69.3295 605.77 71.4091 606.707 73.9148C607.645 76.4034 608.114 79.3182 608.114 82.6591V85.6506H574.952V78.9006H597.861C597.861 77.3324 597.52 75.9432 596.838 74.733C596.156 73.5227 595.21 72.5767 594 71.8949C592.807 71.196 591.418 70.8466 589.832 70.8466C588.179 70.8466 586.713 71.2301 585.435 71.9972C584.173 72.7472 583.185 73.7614 582.469 75.0398C581.753 76.3011 581.386 77.7074 581.369 79.2585V85.6761C581.369 87.6193 581.727 89.2983 582.443 90.7131C583.176 92.1278 584.207 93.2188 585.537 93.9858C586.866 94.7528 588.443 95.1364 590.267 95.1364C591.477 95.1364 592.585 94.9659 593.591 94.625C594.597 94.2841 595.457 93.7727 596.173 93.0909C596.889 92.4091 597.435 91.5739 597.81 90.5852L607.884 91.25C607.372 93.6705 606.324 95.7841 604.739 97.5909C603.17 99.3807 601.142 100.778 598.653 101.784C596.182 102.773 593.327 103.267 590.088 103.267ZM615.222 102.5V63.2273H625.781V70.0795H626.19C626.906 67.642 628.108 65.8011 629.795 64.5568C631.483 63.2955 633.426 62.6648 635.625 62.6648C636.17 62.6648 636.759 62.6989 637.389 62.767C638.02 62.8352 638.574 62.929 639.051 63.0483V72.7131C638.54 72.5597 637.832 72.4233 636.929 72.304C636.026 72.1847 635.199 72.125 634.449 72.125C632.847 72.125 631.415 72.4744 630.153 73.1733C628.909 73.8551 627.92 74.8097 627.188 76.0369C626.472 77.2642 626.114 78.679 626.114 80.2812V102.5H615.222Z" fill="black"/>
<rect x="821.5" y="37.75" width="192.5" height="76.5" rx="19.5" stroke="black"/>
<path d="M853.5 63.5C853.5 60.0482 856.298 57.25 859.75 57.25H866V69.75H859.75C856.298 69.75 853.5 66.9518 853.5 63.5Z" fill="#E64A19"/>
<path d="M866 57.25H872.25C875.702 57.25 878.5 60.0482 878.5 63.5C878.5 66.9518 875.702 69.75 872.25 69.75H866V57.25Z" fill="#FF7043"/>
<path d="M853.5 76C853.5 72.5482 856.298 69.75 859.75 69.75H866V82.25H859.75C856.298 82.25 853.5 79.4518 853.5 76Z" fill="#7C4DFF"/>
<path d="M866 76C866 72.5482 868.798 69.75 872.25 69.75C875.702 69.75 878.5 72.5482 878.5 76C878.5 79.4518 875.702 82.25 872.25 82.25C868.798 82.25 866 79.4518 866 76Z" fill="#29B6F6"/>
<path d="M853.5 88.5C853.5 85.0482 856.298 82.25 859.75 82.25H866V88.5C866 91.9518 863.202 94.75 859.75 94.75C856.298 94.75 853.5 91.9518 853.5 88.5Z" fill="#66BB6A"/>
<path d="M898.16 86.25V64.77H905.72C906.74 64.77 907.69 64.94 908.57 65.28C909.47 65.6 910.25 66.06 910.91 66.66C911.57 67.26 912.09 67.98 912.47 68.82C912.85 69.64 913.04 70.55 913.04 71.55C913.04 72.57 912.85 73.5 912.47 74.34C912.09 75.16 911.57 75.87 910.91 76.47C910.25 77.07 909.47 77.54 908.57 77.88C907.69 78.2 906.74 78.36 905.72 78.36H902.21V86.25H898.16ZM905.78 74.52C906.84 74.52 907.64 74.22 908.18 73.62C908.72 73.02 908.99 72.33 908.99 71.55C908.99 71.17 908.92 70.8 908.78 70.44C908.66 70.08 908.46 69.77 908.18 69.51C907.92 69.23 907.59 69.01 907.19 68.85C906.79 68.69 906.32 68.61 905.78 68.61H902.21V74.52H905.78ZM915.58 86.25V64.77H919.51V86.25H915.58ZM933.045 84.33H932.805C932.345 85.07 931.725 85.66 930.945 86.1C930.165 86.52 929.275 86.73 928.275 86.73C926.415 86.73 925.025 86.16 924.105 85.02C923.205 83.88 922.755 82.36 922.755 80.46V71.55H926.685V79.98C926.685 81.04 926.915 81.83 927.375 82.35C927.855 82.85 928.545 83.1 929.445 83.1C929.985 83.1 930.455 82.99 930.855 82.77C931.275 82.53 931.625 82.22 931.905 81.84C932.205 81.44 932.425 80.98 932.565 80.46C932.725 79.92 932.805 79.35 932.805 78.75V71.55H936.735V86.25H933.045V84.33ZM946.735 93.21C945.695 93.21 944.765 93.07 943.945 92.79C943.145 92.53 942.445 92.18 941.845 91.74C941.245 91.32 940.745 90.85 940.345 90.33C939.945 89.81 939.655 89.29 939.475 88.77L943.225 87.27C943.505 88.05 943.965 88.65 944.605 89.07C945.245 89.51 945.955 89.73 946.735 89.73C947.975 89.73 948.955 89.34 949.675 88.56C950.395 87.8 950.755 86.73 950.755 85.35V84.33H950.515C950.055 84.97 949.445 85.48 948.685 85.86C947.945 86.22 947.065 86.4 946.045 86.4C945.165 86.4 944.305 86.22 943.465 85.86C942.645 85.5 941.915 84.99 941.275 84.33C940.635 83.65 940.115 82.84 939.715 81.9C939.315 80.96 939.115 79.91 939.115 78.75C939.115 77.59 939.315 76.54 939.715 75.6C940.115 74.64 940.635 73.83 941.275 73.17C941.915 72.49 942.645 71.97 943.465 71.61C944.305 71.25 945.165 71.07 946.045 71.07C947.065 71.07 947.945 71.26 948.685 71.64C949.445 72 950.055 72.5 950.515 73.14H950.755V71.55H954.505V85.2C954.505 86.44 954.315 87.55 953.935 88.53C953.555 89.53 953.025 90.37 952.345 91.05C951.665 91.75 950.845 92.28 949.885 92.64C948.945 93.02 947.895 93.21 946.735 93.21ZM946.885 82.86C947.365 82.86 947.835 82.77 948.295 82.59C948.775 82.41 949.195 82.15 949.555 81.81C949.915 81.45 950.205 81.02 950.425 80.52C950.645 80 950.755 79.41 950.755 78.75C950.755 78.09 950.645 77.5 950.425 76.98C950.205 76.46 949.915 76.03 949.555 75.69C949.195 75.33 948.775 75.06 948.295 74.88C947.835 74.7 947.365 74.61 946.885 74.61C946.405 74.61 945.935 74.7 945.475 74.88C945.015 75.06 944.605 75.33 944.245 75.69C943.885 76.05 943.595 76.49 943.375 77.01C943.155 77.51 943.045 78.09 943.045 78.75C943.045 79.41 943.155 80 943.375 80.52C943.595 81.02 943.885 81.45 944.245 81.81C944.605 82.15 945.015 82.41 945.475 82.59C945.935 82.77 946.405 82.86 946.885 82.86ZM960.046 69.42C959.706 69.42 959.376 69.36 959.056 69.24C958.756 69.1 958.486 68.92 958.246 68.7C958.026 68.46 957.846 68.19 957.706 67.89C957.586 67.59 957.526 67.26 957.526 66.9C957.526 66.54 957.586 66.21 957.706 65.91C957.846 65.61 958.026 65.35 958.246 65.13C958.486 64.89 958.756 64.71 959.056 64.59C959.376 64.45 959.706 64.38 960.046 64.38C960.746 64.38 961.346 64.63 961.846 65.13C962.346 65.61 962.596 66.2 962.596 66.9C962.596 67.6 962.346 68.2 961.846 68.7C961.346 69.18 960.746 69.42 960.046 69.42ZM958.096 86.25V71.55H962.026V86.25H958.096ZM969.309 73.47H969.549C970.009 72.73 970.629 72.15 971.409 71.73C972.189 71.29 973.079 71.07 974.079 71.07C974.999 71.07 975.809 71.22 976.509 71.52C977.209 71.82 977.779 72.25 978.219 72.81C978.679 73.35 979.019 74.01 979.239 74.79C979.479 75.55 979.599 76.4 979.599 77.34V86.25H975.669V77.82C975.669 76.76 975.429 75.98 974.949 75.48C974.489 74.96 973.809 74.7 972.909 74.7C972.369 74.7 971.889 74.82 971.469 75.06C971.069 75.28 970.719 75.59 970.419 75.99C970.139 76.37 969.919 76.83 969.759 77.37C969.619 77.89 969.549 78.45 969.549 79.05V86.25H965.619V71.55H969.309V73.47Z" fill="black"/>
<defs>
<filter id="filter0_b_1003_119" x="-28" y="-36" width="224" height="223.75" filterUnits="userSpaceOnUse" color-interpolation-filters="sRGB">
<feFlood flood-opacity="0" result="BackgroundImageFix"/>
<feGaussianBlur in="BackgroundImageFix" stdDeviation="24"/>
<feComposite in2="SourceAlpha" operator="in" result="effect1_backgroundBlur_1003_119"/>
<feBlend mode="normal" in="SourceGraphic" in2="effect1_backgroundBlur_1003_119" result="shape"/>
</filter>
<linearGradient id="paint0_linear_1003_119" x1="36" y1="12" x2="36" y2="140" gradientUnits="userSpaceOnUse">
<stop stop-color="#404040"/>
<stop offset="0.5" stop-color="#808080"/>
<stop offset="0.75" stop-color="#BFBFBF"/>
<stop offset="1" stop-color="#A6A6A6"/>
</linearGradient>
<linearGradient id="paint1_linear_1003_119" x1="68" y1="12" x2="68" y2="140" gradientUnits="userSpaceOnUse">
<stop stop-color="#064979"/>
<stop offset="0.5" stop-color="#0C92F3"/>
<stop offset="0.75" stop-color="#86C8F9"/>
<stop offset="1" stop-color="#CEE9FD"/>
</linearGradient>
<linearGradient id="paint2_linear_1003_119" x1="100" y1="12" x2="100" y2="140" gradientUnits="userSpaceOnUse">
<stop stop-color="#800000"/>
<stop offset="0.5" stop-color="#FF0000"/>
<stop offset="0.75" stop-color="#FF8080"/>
<stop offset="1" stop-color="#FFCCCC"/>
</linearGradient>
<linearGradient id="paint3_linear_1003_119" x1="132" y1="12" x2="132" y2="140" gradientUnits="userSpaceOnUse">
<stop stop-color="#806600"/>
<stop offset="0.5" stop-color="#FFCC00"/>
<stop offset="0.75" stop-color="#FFE680"/>
<stop offset="1" stop-color="#FFF5CC"/>
</linearGradient>
<linearGradient id="paint4_linear_1003_119" x1="84" y1="12" x2="84" y2="139.75" gradientUnits="userSpaceOnUse">
<stop stop-color="white"/>
<stop offset="1"/>
</linearGradient>
<clipPath id="clip0_1003_119">
<rect x="20" y="12" width="128" height="128" rx="32" fill="white"/>
</clipPath>
</defs>
</svg>
