<svg width="813" height="152" viewBox="0 0 813 152" fill="none" xmlns="http://www.w3.org/2000/svg">
<g clip-path="url(#clip0_1003_119)">
<rect y="12" width="32" height="128" fill="url(#paint0_linear_1003_119)"/>
<rect x="32" y="12" width="32" height="128" fill="url(#paint1_linear_1003_119)"/>
<rect x="64" y="12" width="32" height="128" fill="url(#paint2_linear_1003_119)"/>
<rect x="96" y="12" width="32" height="128" fill="url(#paint3_linear_1003_119)"/>
<g filter="url(#filter0_b_1003_119)">
<path d="M2 107.75V44C2 27.4315 15.4315 14 32 14H96C112.569 14 126 27.4315 126 44V107.75C126 124.319 112.569 137.75 96 137.75H32C15.4315 137.75 2 124.319 2 107.75Z" stroke="url(#paint4_linear_1003_119)" stroke-opacity="0.12" stroke-width="4"/>
</g>
</g>
<path d="M210.753 68.4688H199.554C199.349 67.0199 198.932 65.733 198.301 64.608C197.67 63.4659 196.861 62.4943 195.872 61.6932C194.884 60.892 193.741 60.2784 192.446 59.8523C191.168 59.4261 189.778 59.2131 188.278 59.2131C185.568 59.2131 183.207 59.8864 181.196 61.233C179.185 62.5625 177.625 64.5057 176.517 67.0625C175.409 69.6023 174.855 72.6875 174.855 76.3182C174.855 80.0511 175.409 83.1875 176.517 85.7273C177.642 88.267 179.21 90.1847 181.222 91.4801C183.233 92.7756 185.56 93.4233 188.202 93.4233C189.685 93.4233 191.057 93.2273 192.318 92.8352C193.597 92.4432 194.73 91.8722 195.719 91.1222C196.707 90.3551 197.526 89.4261 198.173 88.3352C198.838 87.2443 199.298 86 199.554 84.6023L210.753 84.6534C210.463 87.0568 209.739 89.375 208.58 91.608C207.438 93.8239 205.895 95.8097 203.952 97.5653C202.026 99.304 199.724 100.685 197.048 101.707C194.389 102.713 191.381 103.216 188.023 103.216C183.352 103.216 179.176 102.159 175.494 100.045C171.83 97.9318 168.932 94.8722 166.801 90.8665C164.688 86.8608 163.631 82.0114 163.631 76.3182C163.631 70.608 164.705 65.75 166.852 61.7443C169 57.7386 171.915 54.6875 175.597 52.5909C179.278 50.4773 183.42 49.4205 188.023 49.4205C191.057 49.4205 193.869 49.8466 196.46 50.6989C199.068 51.5511 201.378 52.7955 203.389 54.4318C205.401 56.0511 207.037 58.0369 208.298 60.3892C209.577 62.7415 210.395 65.4347 210.753 68.4688ZM236.232 103.267C232.26 103.267 228.825 102.423 225.928 100.736C223.047 99.0312 220.822 96.6619 219.254 93.6278C217.686 90.5767 216.902 87.0398 216.902 83.017C216.902 78.9602 217.686 75.4148 219.254 72.3807C220.822 69.3295 223.047 66.9602 225.928 65.2727C228.825 63.5682 232.26 62.7159 236.232 62.7159C240.203 62.7159 243.629 63.5682 246.51 65.2727C249.408 66.9602 251.641 69.3295 253.209 72.3807C254.777 75.4148 255.561 78.9602 255.561 83.017C255.561 87.0398 254.777 90.5767 253.209 93.6278C251.641 96.6619 249.408 99.0312 246.51 100.736C243.629 102.423 240.203 103.267 236.232 103.267ZM236.283 94.8295C238.089 94.8295 239.598 94.3182 240.808 93.2955C242.018 92.2557 242.93 90.8409 243.544 89.0511C244.175 87.2614 244.49 85.2244 244.49 82.9403C244.49 80.6562 244.175 78.6193 243.544 76.8295C242.93 75.0398 242.018 73.625 240.808 72.5852C239.598 71.5455 238.089 71.0256 236.283 71.0256C234.459 71.0256 232.925 71.5455 231.68 72.5852C230.453 73.625 229.524 75.0398 228.893 76.8295C228.28 78.6193 227.973 80.6562 227.973 82.9403C227.973 85.2244 228.28 87.2614 228.893 89.0511C229.524 90.8409 230.453 92.2557 231.68 93.2955C232.925 94.3182 234.459 94.8295 236.283 94.8295ZM273.536 50.1364V102.5H262.643V50.1364H273.536ZM300.005 103.267C296.033 103.267 292.599 102.423 289.701 100.736C286.82 99.0312 284.596 96.6619 283.028 93.6278C281.46 90.5767 280.675 87.0398 280.675 83.017C280.675 78.9602 281.46 75.4148 283.028 72.3807C284.596 69.3295 286.82 66.9602 289.701 65.2727C292.599 63.5682 296.033 62.7159 300.005 62.7159C303.977 62.7159 307.403 63.5682 310.283 65.2727C313.181 66.9602 315.414 69.3295 316.982 72.3807C318.55 75.4148 319.335 78.9602 319.335 83.017C319.335 87.0398 318.55 90.5767 316.982 93.6278C315.414 96.6619 313.181 99.0312 310.283 100.736C307.403 102.423 303.977 103.267 300.005 103.267ZM300.056 94.8295C301.863 94.8295 303.371 94.3182 304.582 93.2955C305.792 92.2557 306.704 90.8409 307.317 89.0511C307.948 87.2614 308.263 85.2244 308.263 82.9403C308.263 80.6562 307.948 78.6193 307.317 76.8295C306.704 75.0398 305.792 73.625 304.582 72.5852C303.371 71.5455 301.863 71.0256 300.056 71.0256C298.232 71.0256 296.698 71.5455 295.454 72.5852C294.227 73.625 293.298 75.0398 292.667 76.8295C292.053 78.6193 291.746 80.6562 291.746 82.9403C291.746 85.2244 292.053 87.2614 292.667 89.0511C293.298 90.8409 294.227 92.2557 295.454 93.2955C296.698 94.3182 298.232 94.8295 300.056 94.8295ZM326.417 102.5V63.2273H336.977V70.0795H337.386C338.102 67.642 339.303 65.8011 340.991 64.5568C342.678 63.2955 344.621 62.6648 346.82 62.6648C347.366 62.6648 347.954 62.6989 348.585 62.767C349.215 62.8352 349.769 62.929 350.246 63.0483V72.7131C349.735 72.5597 349.028 72.4233 348.124 72.304C347.221 72.1847 346.394 72.125 345.644 72.125C344.042 72.125 342.61 72.4744 341.349 73.1733C340.104 73.8551 339.116 74.8097 338.383 76.0369C337.667 77.2642 337.309 78.679 337.309 80.2812V102.5H326.417ZM401.153 65.196C400.948 63.1335 400.07 61.5312 398.519 60.3892C396.968 59.2472 394.863 58.6761 392.204 58.6761C390.397 58.6761 388.871 58.9318 387.627 59.4432C386.383 59.9375 385.428 60.6278 384.763 61.5142C384.116 62.4006 383.792 63.4062 383.792 64.5312C383.758 65.4688 383.954 66.2869 384.38 66.9858C384.823 67.6847 385.428 68.2898 386.195 68.8011C386.962 69.2955 387.849 69.7301 388.854 70.1051C389.86 70.4631 390.934 70.7699 392.076 71.0256L396.781 72.1506C399.065 72.6619 401.161 73.3437 403.07 74.196C404.979 75.0483 406.633 76.0966 408.031 77.3409C409.428 78.5852 410.511 80.0511 411.278 81.7386C412.062 83.4261 412.462 85.3608 412.479 87.5426C412.462 90.7472 411.644 93.5256 410.025 95.8778C408.423 98.2131 406.104 100.028 403.07 101.324C400.053 102.602 396.414 103.241 392.153 103.241C387.925 103.241 384.244 102.594 381.107 101.298C377.988 100.003 375.55 98.0852 373.795 95.5455C372.056 92.9886 371.144 89.8267 371.059 86.0597H381.772C381.891 87.8153 382.394 89.2812 383.281 90.4574C384.184 91.6165 385.386 92.4943 386.886 93.0909C388.403 93.6705 390.116 93.9602 392.025 93.9602C393.9 93.9602 395.528 93.6875 396.908 93.142C398.306 92.5966 399.388 91.8381 400.156 90.8665C400.923 89.8949 401.306 88.7784 401.306 87.517C401.306 86.3409 400.957 85.3523 400.258 84.5511C399.576 83.75 398.57 83.0682 397.241 82.5057C395.928 81.9432 394.317 81.4318 392.408 80.9716L386.707 79.5398C382.292 78.4659 378.806 76.7869 376.249 74.5028C373.692 72.2187 372.423 69.142 372.44 65.2727C372.423 62.1023 373.266 59.3324 374.971 56.9631C376.692 54.5938 379.053 52.7443 382.053 51.4148C385.053 50.0852 388.462 49.4205 392.281 49.4205C396.167 49.4205 399.559 50.0852 402.457 51.4148C405.371 52.7443 407.638 54.5938 409.258 56.9631C410.877 59.3324 411.712 62.0767 411.763 65.196H401.153ZM430.614 79.7955V102.5H419.722V50.1364H430.307V70.1562H430.767C431.653 67.8381 433.085 66.0227 435.062 64.7102C437.04 63.3807 439.52 62.7159 442.503 62.7159C445.23 62.7159 447.608 63.3125 449.636 64.5057C451.682 65.6818 453.267 67.3778 454.392 69.5938C455.534 71.7926 456.097 74.4261 456.08 77.4943V102.5H445.188V79.4375C445.205 77.017 444.591 75.1335 443.347 73.7869C442.119 72.4403 440.398 71.767 438.182 71.767C436.699 71.767 435.386 72.0824 434.244 72.7131C433.119 73.3437 432.233 74.2642 431.585 75.4744C430.955 76.6676 430.631 78.108 430.614 79.7955ZM475.85 103.241C473.344 103.241 471.112 102.807 469.151 101.938C467.191 101.051 465.64 99.7472 464.498 98.0256C463.373 96.2869 462.81 94.1222 462.81 91.5312C462.81 89.3494 463.211 87.517 464.012 86.0341C464.813 84.5511 465.904 83.358 467.285 82.4545C468.665 81.5511 470.234 80.8693 471.989 80.4091C473.762 79.9489 475.62 79.625 477.563 79.4375C479.847 79.1989 481.688 78.9773 483.086 78.7727C484.484 78.5511 485.498 78.2273 486.129 77.8011C486.759 77.375 487.075 76.7443 487.075 75.9091V75.7557C487.075 74.1364 486.563 72.8835 485.54 71.9972C484.535 71.1108 483.103 70.6676 481.245 70.6676C479.285 70.6676 477.725 71.1023 476.566 71.9716C475.407 72.8239 474.64 73.8977 474.265 75.1932L464.191 74.375C464.702 71.9886 465.708 69.9261 467.208 68.1875C468.708 66.4318 470.643 65.0852 473.012 64.1477C475.398 63.1932 478.16 62.7159 481.296 62.7159C483.478 62.7159 485.566 62.9716 487.56 63.483C489.572 63.9943 491.353 64.7869 492.904 65.8608C494.472 66.9347 495.708 68.3153 496.612 70.0028C497.515 71.6733 497.967 73.6761 497.967 76.0114V102.5H487.637V97.054H487.33C486.7 98.2812 485.856 99.3636 484.799 100.301C483.742 101.222 482.472 101.946 480.989 102.474C479.506 102.986 477.793 103.241 475.85 103.241ZM478.969 95.7244C480.572 95.7244 481.987 95.4091 483.214 94.7784C484.441 94.1307 485.404 93.2614 486.103 92.1705C486.802 91.0795 487.151 89.8437 487.151 88.4631V84.2955C486.81 84.517 486.342 84.7216 485.745 84.9091C485.165 85.0795 484.509 85.2415 483.776 85.3949C483.043 85.5312 482.31 85.6591 481.577 85.7784C480.844 85.8807 480.18 85.9744 479.583 86.0597C478.305 86.2472 477.188 86.5455 476.234 86.9545C475.279 87.3636 474.538 87.9176 474.009 88.6165C473.481 89.2983 473.217 90.1506 473.217 91.1733C473.217 92.6562 473.754 93.7898 474.827 94.5739C475.918 95.3409 477.299 95.7244 478.969 95.7244ZM520.888 103.139C517.906 103.139 515.204 102.372 512.783 100.838C510.38 99.2869 508.471 97.0114 507.056 94.0114C505.658 90.9943 504.96 87.2955 504.96 82.9148C504.96 78.4148 505.684 74.6733 507.133 71.6903C508.582 68.6903 510.508 66.4489 512.911 64.9659C515.332 63.4659 517.982 62.7159 520.863 62.7159C523.062 62.7159 524.894 63.0909 526.36 63.8409C527.843 64.5739 529.036 65.4943 529.94 66.6023C530.86 67.6932 531.559 68.767 532.036 69.8239H532.369V50.1364H543.235V102.5H532.496V96.2102H532.036C531.525 97.3011 530.8 98.3835 529.863 99.4574C528.942 100.514 527.741 101.392 526.258 102.091C524.792 102.79 523.002 103.139 520.888 103.139ZM524.34 94.4716C526.096 94.4716 527.579 93.9943 528.789 93.0398C530.016 92.0682 530.954 90.7131 531.602 88.9744C532.266 87.2358 532.599 85.1989 532.599 82.8636C532.599 80.5284 532.275 78.5 531.627 76.7784C530.979 75.0568 530.042 73.7273 528.815 72.7898C527.587 71.8523 526.096 71.3835 524.34 71.3835C522.55 71.3835 521.042 71.8693 519.815 72.8409C518.587 73.8125 517.658 75.1591 517.028 76.8807C516.397 78.6023 516.082 80.5966 516.082 82.8636C516.082 85.1477 516.397 87.1676 517.028 88.9233C517.675 90.6619 518.604 92.0256 519.815 93.0142C521.042 93.9858 522.55 94.4716 524.34 94.4716ZM570.088 103.267C566.048 103.267 562.571 102.449 559.656 100.812C556.759 99.1591 554.526 96.8239 552.957 93.8068C551.389 90.7727 550.605 87.1847 550.605 83.0426C550.605 79.0028 551.389 75.4574 552.957 72.4062C554.526 69.3551 556.733 66.9773 559.58 65.2727C562.443 63.5682 565.801 62.7159 569.653 62.7159C572.244 62.7159 574.656 63.1335 576.889 63.9688C579.139 64.7869 581.099 66.0227 582.77 67.6761C584.457 69.3295 585.77 71.4091 586.707 73.9148C587.645 76.4034 588.114 79.3182 588.114 82.6591V85.6506H554.952V78.9006H577.861C577.861 77.3324 577.52 75.9432 576.838 74.733C576.156 73.5227 575.21 72.5767 574 71.8949C572.807 71.196 571.418 70.8466 569.832 70.8466C568.179 70.8466 566.713 71.2301 565.435 71.9972C564.173 72.7472 563.185 73.7614 562.469 75.0398C561.753 76.3011 561.386 77.7074 561.369 79.2585V85.6761C561.369 87.6193 561.727 89.2983 562.443 90.7131C563.176 92.1278 564.207 93.2188 565.537 93.9858C566.866 94.7528 568.443 95.1364 570.267 95.1364C571.477 95.1364 572.585 94.9659 573.591 94.625C574.597 94.2841 575.457 93.7727 576.173 93.0909C576.889 92.4091 577.435 91.5739 577.81 90.5852L587.884 91.25C587.372 93.6705 586.324 95.7841 584.739 97.5909C583.17 99.3807 581.142 100.778 578.653 101.784C576.182 102.773 573.327 103.267 570.088 103.267ZM595.222 102.5V63.2273H605.781V70.0795H606.19C606.906 67.642 608.108 65.8011 609.795 64.5568C611.483 63.2955 613.426 62.6648 615.625 62.6648C616.17 62.6648 616.759 62.6989 617.389 62.767C618.02 62.8352 618.574 62.929 619.051 63.0483V72.7131C618.54 72.5597 617.832 72.4233 616.929 72.304C616.026 72.1847 615.199 72.125 614.449 72.125C612.847 72.125 611.415 72.4744 610.153 73.1733C608.909 73.8551 607.92 74.8097 607.188 76.0369C606.472 77.2642 606.114 78.679 606.114 80.2812V102.5H595.222Z" fill="black"/>
<rect x="653.413" y="44.4129" width="158.948" height="63.1742" rx="16.1032" stroke="black" stroke-width="0.825806"/>
<path d="M679.839 65.6774C679.839 62.8269 682.15 60.5161 685 60.5161H690.161V70.8387H685C682.15 70.8387 679.839 68.5279 679.839 65.6774Z" fill="#E64A19"/>
<path d="M690.161 60.5161H695.323C698.173 60.5161 700.484 62.8269 700.484 65.6774C700.484 68.5279 698.173 70.8387 695.323 70.8387H690.161V60.5161Z" fill="#FF7043"/>
<path d="M679.839 76C679.839 73.1495 682.15 70.8387 685 70.8387H690.161V81.1613H685C682.15 81.1613 679.839 78.8505 679.839 76Z" fill="#7C4DFF"/>
<path d="M690.161 76C690.161 73.1495 692.472 70.8387 695.323 70.8387C698.173 70.8387 700.484 73.1495 700.484 76C700.484 78.8505 698.173 81.1613 695.323 81.1613C692.472 81.1613 690.161 78.8505 690.161 76Z" fill="#29B6F6"/>
<path d="M679.839 86.3226C679.839 83.4721 682.15 81.1613 685 81.1613H690.161V86.3226C690.161 89.1731 687.851 91.4839 685 91.4839C682.15 91.4839 679.839 89.1731 679.839 86.3226Z" fill="#66BB6A"/>
<path d="M716.719 84.5161V66.7778H722.962C723.805 66.7778 724.589 66.9182 725.316 67.1989C726.059 67.4632 726.703 67.8431 727.248 68.3386C727.793 68.834 728.223 69.4286 728.537 70.1223C728.85 70.7995 729.007 71.551 729.007 72.3768C729.007 73.2191 728.85 73.9871 728.537 74.6808C728.223 75.3579 727.793 75.9442 727.248 76.4397C726.703 76.9352 726.059 77.3233 725.316 77.6041C724.589 77.8684 723.805 78.0005 722.962 78.0005H720.064V84.5161H716.719ZM723.012 74.8294C723.887 74.8294 724.548 74.5817 724.994 74.0862C725.44 73.5907 725.663 73.0209 725.663 72.3768C725.663 72.063 725.605 71.7574 725.489 71.4601C725.39 71.1628 725.225 70.9068 724.994 70.6921C724.779 70.4609 724.507 70.2792 724.176 70.1471C723.846 70.015 723.458 69.9489 723.012 69.9489H720.064V74.8294H723.012ZM731.105 84.5161V66.7778H734.351V84.5161H731.105ZM745.528 82.9306H745.33C744.95 83.5417 744.438 84.0289 743.794 84.3922C743.149 84.7391 742.415 84.9125 741.589 84.9125C740.053 84.9125 738.905 84.4418 738.145 83.5004C737.402 82.559 737.03 81.3037 737.03 79.7347V72.3768H740.276V79.3383C740.276 80.2137 740.466 80.866 740.845 81.2955C741.242 81.7084 741.812 81.9148 742.555 81.9148C743.001 81.9148 743.389 81.824 743.719 81.6423C744.066 81.4441 744.355 81.1881 744.586 80.8743C744.834 80.544 745.016 80.1641 745.131 79.7347C745.264 79.2888 745.33 78.818 745.33 78.3226V72.3768H748.575V84.5161H745.528V82.9306ZM756.833 90.2637C755.974 90.2637 755.206 90.1481 754.529 89.9169C753.869 89.7022 753.29 89.4131 752.795 89.0498C752.299 88.703 751.887 88.3148 751.556 87.8854C751.226 87.456 750.986 87.0266 750.838 86.5971L753.935 85.3584C754.166 86.0026 754.546 86.498 755.074 86.8449C755.603 87.2082 756.189 87.3899 756.833 87.3899C757.857 87.3899 758.666 87.0679 759.261 86.4237C759.856 85.7961 760.153 84.9125 760.153 83.7729V82.9306H759.955C759.575 83.4591 759.071 83.8802 758.443 84.194C757.832 84.4913 757.106 84.64 756.263 84.64C755.537 84.64 754.826 84.4913 754.133 84.194C753.456 83.8968 752.853 83.4756 752.324 82.9306C751.796 82.369 751.366 81.7001 751.036 80.9239C750.706 80.1476 750.541 79.2805 750.541 78.3226C750.541 77.3646 750.706 76.4975 751.036 75.7213C751.366 74.9285 751.796 74.2596 752.324 73.7146C752.853 73.153 753.456 72.7236 754.133 72.4263C754.826 72.129 755.537 71.9804 756.263 71.9804C757.106 71.9804 757.832 72.1373 758.443 72.4511C759.071 72.7484 759.575 73.1613 759.955 73.6898H760.153V72.3768H763.25V83.649C763.25 84.673 763.093 85.5897 762.779 86.399C762.465 87.2248 762.027 87.9184 761.466 88.48C760.904 89.058 760.227 89.4957 759.434 89.793C758.658 90.1068 757.791 90.2637 756.833 90.2637ZM756.957 81.7166C757.353 81.7166 757.742 81.6423 758.121 81.4937C758.518 81.345 758.865 81.1303 759.162 80.8495C759.459 80.5522 759.699 80.1971 759.88 79.7842C760.062 79.3548 760.153 78.8676 760.153 78.3226C760.153 77.7775 760.062 77.2903 759.88 76.8609C759.699 76.4315 759.459 76.0764 759.162 75.7956C758.865 75.4983 758.518 75.2753 758.121 75.1267C757.742 74.978 757.353 74.9037 756.957 74.9037C756.561 74.9037 756.173 74.978 755.793 75.1267C755.413 75.2753 755.074 75.4983 754.777 75.7956C754.48 76.0929 754.24 76.4562 754.058 76.8857C753.877 77.2986 753.786 77.7775 753.786 78.3226C753.786 78.8676 753.877 79.3548 754.058 79.7842C754.24 80.1971 754.48 80.5522 754.777 80.8495C755.074 81.1303 755.413 81.345 755.793 81.4937C756.173 81.6423 756.561 81.7166 756.957 81.7166ZM767.825 70.6178C767.544 70.6178 767.272 70.5682 767.007 70.4691C766.76 70.3535 766.537 70.2049 766.339 70.0232C766.157 69.825 766.008 69.602 765.893 69.3543C765.793 69.1066 765.744 68.834 765.744 68.5368C765.744 68.2395 765.793 67.967 765.893 67.7192C766.008 67.4715 766.157 67.2568 766.339 67.0751C766.537 66.8769 766.76 66.7282 767.007 66.6291C767.272 66.5135 767.544 66.4557 767.825 66.4557C768.403 66.4557 768.899 66.6622 769.311 67.0751C769.724 67.4715 769.931 67.9587 769.931 68.5368C769.931 69.1148 769.724 69.6103 769.311 70.0232C768.899 70.4196 768.403 70.6178 767.825 70.6178ZM766.215 84.5161V72.3768H769.46V84.5161H766.215ZM775.475 73.9623H775.673C776.053 73.3512 776.565 72.8722 777.209 72.5254C777.853 72.162 778.588 71.9804 779.414 71.9804C780.174 71.9804 780.843 72.1042 781.421 72.352C781.999 72.5997 782.47 72.9548 782.833 73.4173C783.213 73.8632 783.494 74.4082 783.675 75.0524C783.873 75.68 783.973 76.3819 783.973 77.1582V84.5161H780.727V77.5546C780.727 76.6792 780.529 76.0351 780.133 75.6222C779.753 75.1928 779.191 74.978 778.448 74.978C778.002 74.978 777.606 75.0771 777.259 75.2753C776.928 75.457 776.639 75.713 776.392 76.0433C776.16 76.3571 775.979 76.737 775.847 77.183C775.731 77.6124 775.673 78.0748 775.673 78.5703V84.5161H772.428V72.3768H775.475V73.9623Z" fill="black"/>
<defs>
<filter id="filter0_b_1003_119" x="-48" y="-36" width="224" height="223.75" filterUnits="userSpaceOnUse" color-interpolation-filters="sRGB">
<feFlood flood-opacity="0" result="BackgroundImageFix"/>
<feGaussianBlur in="BackgroundImageFix" stdDeviation="24"/>
<feComposite in2="SourceAlpha" operator="in" result="effect1_backgroundBlur_1003_119"/>
<feBlend mode="normal" in="SourceGraphic" in2="effect1_backgroundBlur_1003_119" result="shape"/>
</filter>
<linearGradient id="paint0_linear_1003_119" x1="16" y1="12" x2="16" y2="140" gradientUnits="userSpaceOnUse">
<stop stop-color="#404040"/>
<stop offset="0.5" stop-color="#808080"/>
<stop offset="0.75" stop-color="#BFBFBF"/>
<stop offset="1" stop-color="#A6A6A6"/>
</linearGradient>
<linearGradient id="paint1_linear_1003_119" x1="48" y1="12" x2="48" y2="140" gradientUnits="userSpaceOnUse">
<stop stop-color="#064979"/>
<stop offset="0.5" stop-color="#0C92F3"/>
<stop offset="0.75" stop-color="#86C8F9"/>
<stop offset="1" stop-color="#CEE9FD"/>
</linearGradient>
<linearGradient id="paint2_linear_1003_119" x1="80" y1="12" x2="80" y2="140" gradientUnits="userSpaceOnUse">
<stop stop-color="#800000"/>
<stop offset="0.5" stop-color="#FF0000"/>
<stop offset="0.75" stop-color="#FF8080"/>
<stop offset="1" stop-color="#FFCCCC"/>
</linearGradient>
<linearGradient id="paint3_linear_1003_119" x1="112" y1="12" x2="112" y2="140" gradientUnits="userSpaceOnUse">
<stop stop-color="#806600"/>
<stop offset="0.5" stop-color="#FFCC00"/>
<stop offset="0.75" stop-color="#FFE680"/>
<stop offset="1" stop-color="#FFF5CC"/>
</linearGradient>
<linearGradient id="paint4_linear_1003_119" x1="64" y1="12" x2="64" y2="139.75" gradientUnits="userSpaceOnUse">
<stop stop-color="white"/>
<stop offset="1"/>
</linearGradient>
<clipPath id="clip0_1003_119">
<rect y="12" width="128" height="128" rx="32" fill="white"/>
</clipPath>
</defs>
</svg>
